<mxfile host="app.diagrams.net" modified="2023-10-10T08:39:07.630Z" agent="Mozilla/5.0 (Windows NT 10.0; Win64; x64) AppleWebKit/537.36 (KHTML, like Gecko) Chrome/117.0.0.0 Safari/537.36" etag="E3P-_qKGzf8vVCIHdEjF" version="22.0.4" type="github" pages="2">
  <diagram name="Страница — 1" id="xLpM_DlrDciEQwVskZsL">
    <mxGraphModel dx="1728" dy="2580" grid="1" gridSize="10" guides="1" tooltips="1" connect="1" arrows="1" fold="1" page="1" pageScale="1" pageWidth="1169" pageHeight="1654" math="0" shadow="0">
      <root>
        <mxCell id="0" />
        <mxCell id="1" parent="0" />
        <mxCell id="nYOYtLeV4sklabvxNNeh-1" value="Номер операции на диаграме" style="rounded=0;whiteSpace=wrap;html=1;" vertex="1" parent="1">
          <mxGeometry x="40" y="-1590" width="180" height="60" as="geometry" />
        </mxCell>
        <mxCell id="nYOYtLeV4sklabvxNNeh-2" value="Операция" style="rounded=0;whiteSpace=wrap;html=1;" vertex="1" parent="1">
          <mxGeometry x="220" y="-1590" width="160" height="60" as="geometry" />
        </mxCell>
        <mxCell id="nYOYtLeV4sklabvxNNeh-3" value="Специфика разработки" style="rounded=0;whiteSpace=wrap;html=1;" vertex="1" parent="1">
          <mxGeometry x="540" y="-1590" width="160" height="60" as="geometry" />
        </mxCell>
        <mxCell id="nYOYtLeV4sklabvxNNeh-4" value="Необходимые разработки" style="rounded=0;whiteSpace=wrap;html=1;" vertex="1" parent="1">
          <mxGeometry x="380" y="-1590" width="160" height="60" as="geometry" />
        </mxCell>
        <mxCell id="nYOYtLeV4sklabvxNNeh-5" value="Функциональность(модуль) системы" style="rounded=0;whiteSpace=wrap;html=1;" vertex="1" parent="1">
          <mxGeometry x="700" y="-1590" width="190" height="60" as="geometry" />
        </mxCell>
        <mxCell id="nYOYtLeV4sklabvxNNeh-6" value="1" style="rounded=0;whiteSpace=wrap;html=1;" vertex="1" parent="1">
          <mxGeometry x="40" y="-1530" width="180" height="30" as="geometry" />
        </mxCell>
        <mxCell id="nYOYtLeV4sklabvxNNeh-7" value="2" style="rounded=0;whiteSpace=wrap;html=1;" vertex="1" parent="1">
          <mxGeometry x="220" y="-1530" width="160" height="30" as="geometry" />
        </mxCell>
        <mxCell id="nYOYtLeV4sklabvxNNeh-8" value="4" style="rounded=0;whiteSpace=wrap;html=1;" vertex="1" parent="1">
          <mxGeometry x="540" y="-1530" width="160" height="30" as="geometry" />
        </mxCell>
        <mxCell id="nYOYtLeV4sklabvxNNeh-9" value="3" style="rounded=0;whiteSpace=wrap;html=1;" vertex="1" parent="1">
          <mxGeometry x="380" y="-1530" width="160" height="30" as="geometry" />
        </mxCell>
        <mxCell id="nYOYtLeV4sklabvxNNeh-10" value="5" style="rounded=0;whiteSpace=wrap;html=1;" vertex="1" parent="1">
          <mxGeometry x="700" y="-1530" width="190" height="30" as="geometry" />
        </mxCell>
        <mxCell id="nYOYtLeV4sklabvxNNeh-11" value="1 (1Пл_3ак)" style="rounded=0;whiteSpace=wrap;html=1;" vertex="1" parent="1">
          <mxGeometry x="40" y="-1500" width="180" height="60" as="geometry" />
        </mxCell>
        <mxCell id="nYOYtLeV4sklabvxNNeh-12" value="1. Проверка товара по количеству, серийному соответствию сроку годности" style="rounded=0;whiteSpace=wrap;html=1;" vertex="1" parent="1">
          <mxGeometry x="220" y="-1500" width="160" height="60" as="geometry" />
        </mxCell>
        <mxCell id="nYOYtLeV4sklabvxNNeh-13" value="Коды материалов в файле соответствующей кодировке в Системе" style="rounded=0;whiteSpace=wrap;html=1;" vertex="1" parent="1">
          <mxGeometry x="540" y="-1500" width="160" height="60" as="geometry" />
        </mxCell>
        <mxCell id="nYOYtLeV4sklabvxNNeh-14" value="Разаботка узла хранения данных товара&amp;nbsp;" style="rounded=0;whiteSpace=wrap;html=1;" vertex="1" parent="1">
          <mxGeometry x="380" y="-1500" width="160" height="60" as="geometry" />
        </mxCell>
        <mxCell id="nYOYtLeV4sklabvxNNeh-15" value="Продажи, товары" style="rounded=0;whiteSpace=wrap;html=1;" vertex="1" parent="1">
          <mxGeometry x="700" y="-1500" width="190" height="60" as="geometry" />
        </mxCell>
        <mxCell id="nYOYtLeV4sklabvxNNeh-18" value="2. Получение внешней статистики продаж" style="rounded=0;whiteSpace=wrap;html=1;" vertex="1" parent="1">
          <mxGeometry x="220" y="-1230" width="160" height="60" as="geometry" />
        </mxCell>
        <mxCell id="nYOYtLeV4sklabvxNNeh-19" value="Коды товара в файле соответствуют кодировке в Системе" style="rounded=0;whiteSpace=wrap;html=1;" vertex="1" parent="1">
          <mxGeometry x="540" y="-1230" width="160" height="60" as="geometry" />
        </mxCell>
        <mxCell id="nYOYtLeV4sklabvxNNeh-20" value="Разработка узла хранения данных статистики продаж" style="rounded=0;whiteSpace=wrap;html=1;" vertex="1" parent="1">
          <mxGeometry x="380" y="-1230" width="160" height="60" as="geometry" />
        </mxCell>
        <mxCell id="nYOYtLeV4sklabvxNNeh-21" value="Продажи, товары" style="rounded=0;whiteSpace=wrap;html=1;" vertex="1" parent="1">
          <mxGeometry x="700" y="-1230" width="190" height="180" as="geometry" />
        </mxCell>
        <mxCell id="nYOYtLeV4sklabvxNNeh-22" value="2(1Пл_3ак)" style="rounded=0;whiteSpace=wrap;html=1;" vertex="1" parent="1">
          <mxGeometry x="40" y="-1050" width="185" height="60" as="geometry" />
        </mxCell>
        <mxCell id="nYOYtLeV4sklabvxNNeh-23" value="3.&amp;nbsp;" style="rounded=0;whiteSpace=wrap;html=1;" vertex="1" parent="1">
          <mxGeometry x="225" y="-1050" width="160" height="60" as="geometry" />
        </mxCell>
        <mxCell id="nYOYtLeV4sklabvxNNeh-24" value="" style="rounded=0;whiteSpace=wrap;html=1;" vertex="1" parent="1">
          <mxGeometry x="545" y="-1050" width="160" height="60" as="geometry" />
        </mxCell>
        <mxCell id="nYOYtLeV4sklabvxNNeh-25" value="" style="rounded=0;whiteSpace=wrap;html=1;" vertex="1" parent="1">
          <mxGeometry x="385" y="-1050" width="160" height="60" as="geometry" />
        </mxCell>
        <mxCell id="nYOYtLeV4sklabvxNNeh-26" value="" style="rounded=0;whiteSpace=wrap;html=1;" vertex="1" parent="1">
          <mxGeometry x="705" y="-1050" width="190" height="60" as="geometry" />
        </mxCell>
        <mxCell id="nYOYtLeV4sklabvxNNeh-27" value="" style="rounded=0;whiteSpace=wrap;html=1;" vertex="1" parent="1">
          <mxGeometry x="40" y="-990" width="185" height="60" as="geometry" />
        </mxCell>
        <mxCell id="nYOYtLeV4sklabvxNNeh-28" value="" style="rounded=0;whiteSpace=wrap;html=1;" vertex="1" parent="1">
          <mxGeometry x="225" y="-990" width="160" height="60" as="geometry" />
        </mxCell>
        <mxCell id="nYOYtLeV4sklabvxNNeh-29" value="" style="rounded=0;whiteSpace=wrap;html=1;" vertex="1" parent="1">
          <mxGeometry x="545" y="-990" width="160" height="60" as="geometry" />
        </mxCell>
        <mxCell id="nYOYtLeV4sklabvxNNeh-30" value="" style="rounded=0;whiteSpace=wrap;html=1;" vertex="1" parent="1">
          <mxGeometry x="385" y="-990" width="160" height="60" as="geometry" />
        </mxCell>
        <mxCell id="nYOYtLeV4sklabvxNNeh-31" value="" style="rounded=0;whiteSpace=wrap;html=1;" vertex="1" parent="1">
          <mxGeometry x="705" y="-990" width="190" height="60" as="geometry" />
        </mxCell>
        <mxCell id="nYOYtLeV4sklabvxNNeh-32" value="Разработка узла хранения данных статистики продаж&amp;nbsp;" style="rounded=0;whiteSpace=wrap;html=1;" vertex="1" parent="1">
          <mxGeometry x="380" y="-1440" width="160" height="40" as="geometry" />
        </mxCell>
        <mxCell id="nYOYtLeV4sklabvxNNeh-33" value="Разработка узла хранения данных статистики продаж&amp;nbsp;" style="rounded=0;whiteSpace=wrap;html=1;" vertex="1" parent="1">
          <mxGeometry x="380" y="-1440" width="160" height="40" as="geometry" />
        </mxCell>
        <mxCell id="nYOYtLeV4sklabvxNNeh-34" value="1б (1Пл_3ак)" style="rounded=0;whiteSpace=wrap;html=1;" vertex="1" parent="1">
          <mxGeometry x="40" y="-1230" width="180" height="60" as="geometry" />
        </mxCell>
        <mxCell id="nYOYtLeV4sklabvxNNeh-35" value="Единица измерения номенклатуры соответственно, единица измерения в Системе. Коды номенклатуры статистики соответствуют кодам номенклатуры Системы" style="rounded=0;whiteSpace=wrap;html=1;" vertex="1" parent="1">
          <mxGeometry x="540" y="-1440" width="160" height="210" as="geometry" />
        </mxCell>
        <mxCell id="nYOYtLeV4sklabvxNNeh-36" value="" style="rounded=0;whiteSpace=wrap;html=1;" vertex="1" parent="1">
          <mxGeometry x="700" y="-1440" width="190" height="210" as="geometry" />
        </mxCell>
        <mxCell id="nYOYtLeV4sklabvxNNeh-37" value="" style="rounded=0;whiteSpace=wrap;html=1;" vertex="1" parent="1">
          <mxGeometry x="220" y="-1440" width="160" height="210" as="geometry" />
        </mxCell>
        <mxCell id="nYOYtLeV4sklabvxNNeh-38" value="" style="rounded=0;whiteSpace=wrap;html=1;" vertex="1" parent="1">
          <mxGeometry x="40" y="-1440" width="180" height="210" as="geometry" />
        </mxCell>
        <mxCell id="nYOYtLeV4sklabvxNNeh-39" value="" style="rounded=0;whiteSpace=wrap;html=1;" vertex="1" parent="1">
          <mxGeometry x="380" y="-1400" width="160" height="170" as="geometry" />
        </mxCell>
        <mxCell id="nYOYtLeV4sklabvxNNeh-40" value="Разработка механизма продажи товара статистистики" style="rounded=0;whiteSpace=wrap;html=1;" vertex="1" parent="1">
          <mxGeometry x="380" y="-1170" width="160" height="40" as="geometry" />
        </mxCell>
        <mxCell id="nYOYtLeV4sklabvxNNeh-42" value="" style="rounded=0;whiteSpace=wrap;html=1;" vertex="1" parent="1">
          <mxGeometry x="40" y="-930" width="185" height="60" as="geometry" />
        </mxCell>
        <mxCell id="nYOYtLeV4sklabvxNNeh-43" value="" style="rounded=0;whiteSpace=wrap;html=1;" vertex="1" parent="1">
          <mxGeometry x="225" y="-930" width="160" height="60" as="geometry" />
        </mxCell>
        <mxCell id="nYOYtLeV4sklabvxNNeh-44" value="" style="rounded=0;whiteSpace=wrap;html=1;" vertex="1" parent="1">
          <mxGeometry x="545" y="-930" width="160" height="60" as="geometry" />
        </mxCell>
        <mxCell id="nYOYtLeV4sklabvxNNeh-45" value="" style="rounded=0;whiteSpace=wrap;html=1;" vertex="1" parent="1">
          <mxGeometry x="385" y="-930" width="160" height="60" as="geometry" />
        </mxCell>
        <mxCell id="nYOYtLeV4sklabvxNNeh-46" value="" style="rounded=0;whiteSpace=wrap;html=1;" vertex="1" parent="1">
          <mxGeometry x="705" y="-930" width="190" height="60" as="geometry" />
        </mxCell>
        <mxCell id="nYOYtLeV4sklabvxNNeh-47" value="" style="rounded=0;whiteSpace=wrap;html=1;" vertex="1" parent="1">
          <mxGeometry x="40" y="-870" width="185" height="60" as="geometry" />
        </mxCell>
        <mxCell id="nYOYtLeV4sklabvxNNeh-48" value="" style="rounded=0;whiteSpace=wrap;html=1;" vertex="1" parent="1">
          <mxGeometry x="225" y="-870" width="160" height="60" as="geometry" />
        </mxCell>
        <mxCell id="nYOYtLeV4sklabvxNNeh-49" value="" style="rounded=0;whiteSpace=wrap;html=1;" vertex="1" parent="1">
          <mxGeometry x="545" y="-870" width="160" height="60" as="geometry" />
        </mxCell>
        <mxCell id="nYOYtLeV4sklabvxNNeh-50" value="" style="rounded=0;whiteSpace=wrap;html=1;" vertex="1" parent="1">
          <mxGeometry x="385" y="-870" width="160" height="60" as="geometry" />
        </mxCell>
        <mxCell id="nYOYtLeV4sklabvxNNeh-51" value="" style="rounded=0;whiteSpace=wrap;html=1;" vertex="1" parent="1">
          <mxGeometry x="705" y="-870" width="190" height="60" as="geometry" />
        </mxCell>
        <mxCell id="nYOYtLeV4sklabvxNNeh-52" value="Единица измерения номенклатуры соответствуют измерения в Системе. Коды номенклатуры статистики соответствуют кодам номенклатуры Системы" style="rounded=0;whiteSpace=wrap;html=1;" vertex="1" parent="1">
          <mxGeometry x="540" y="-1170" width="160" height="120" as="geometry" />
        </mxCell>
        <mxCell id="nYOYtLeV4sklabvxNNeh-53" value="" style="rounded=0;whiteSpace=wrap;html=1;" vertex="1" parent="1">
          <mxGeometry x="380" y="-1130" width="160" height="80" as="geometry" />
        </mxCell>
        <mxCell id="nYOYtLeV4sklabvxNNeh-54" value="&amp;nbsp;" style="rounded=0;whiteSpace=wrap;html=1;" vertex="1" parent="1">
          <mxGeometry x="220" y="-1170" width="160" height="120" as="geometry" />
        </mxCell>
        <mxCell id="nYOYtLeV4sklabvxNNeh-55" value="" style="rounded=0;whiteSpace=wrap;html=1;" vertex="1" parent="1">
          <mxGeometry x="40" y="-1170" width="180" height="120" as="geometry" />
        </mxCell>
        <mxCell id="eUUDmIeHUWmPiPd6V3A3-1" value="Запасы-склад(приходование&amp;nbsp; товаров)" style="text;html=1;align=center;verticalAlign=middle;resizable=0;points=[];autosize=1;strokeColor=none;fillColor=none;" vertex="1" parent="1">
          <mxGeometry x="30" y="-1640" width="240" height="30" as="geometry" />
        </mxCell>
      </root>
    </mxGraphModel>
  </diagram>
  <diagram id="RsxhFtWmsPTmZFdcgfTk" name="Страница — 2">
    <mxGraphModel dx="2074" dy="2765" grid="1" gridSize="10" guides="1" tooltips="1" connect="1" arrows="1" fold="1" page="1" pageScale="1" pageWidth="1169" pageHeight="1654" math="0" shadow="0">
      <root>
        <mxCell id="0" />
        <mxCell id="1" parent="0" />
        <mxCell id="Zug3iQlychnfAxLrtoQu-1" value="Номер операции на диаграме" style="rounded=0;whiteSpace=wrap;html=1;" vertex="1" parent="1">
          <mxGeometry x="40" y="-1590" width="180" height="60" as="geometry" />
        </mxCell>
        <mxCell id="Zug3iQlychnfAxLrtoQu-2" value="Операция" style="rounded=0;whiteSpace=wrap;html=1;" vertex="1" parent="1">
          <mxGeometry x="220" y="-1590" width="160" height="60" as="geometry" />
        </mxCell>
        <mxCell id="Zug3iQlychnfAxLrtoQu-3" value="Специфика разработки" style="rounded=0;whiteSpace=wrap;html=1;" vertex="1" parent="1">
          <mxGeometry x="540" y="-1590" width="160" height="60" as="geometry" />
        </mxCell>
        <mxCell id="Zug3iQlychnfAxLrtoQu-4" value="Необходимые разработки" style="rounded=0;whiteSpace=wrap;html=1;" vertex="1" parent="1">
          <mxGeometry x="380" y="-1590" width="160" height="60" as="geometry" />
        </mxCell>
        <mxCell id="Zug3iQlychnfAxLrtoQu-5" value="Функциональность(модуль) системы" style="rounded=0;whiteSpace=wrap;html=1;" vertex="1" parent="1">
          <mxGeometry x="700" y="-1590" width="190" height="60" as="geometry" />
        </mxCell>
        <mxCell id="Zug3iQlychnfAxLrtoQu-6" value="1" style="rounded=0;whiteSpace=wrap;html=1;" vertex="1" parent="1">
          <mxGeometry x="40" y="-1530" width="180" height="30" as="geometry" />
        </mxCell>
        <mxCell id="Zug3iQlychnfAxLrtoQu-7" value="2" style="rounded=0;whiteSpace=wrap;html=1;" vertex="1" parent="1">
          <mxGeometry x="220" y="-1530" width="160" height="30" as="geometry" />
        </mxCell>
        <mxCell id="Zug3iQlychnfAxLrtoQu-8" value="4" style="rounded=0;whiteSpace=wrap;html=1;" vertex="1" parent="1">
          <mxGeometry x="540" y="-1530" width="160" height="30" as="geometry" />
        </mxCell>
        <mxCell id="Zug3iQlychnfAxLrtoQu-9" value="3" style="rounded=0;whiteSpace=wrap;html=1;" vertex="1" parent="1">
          <mxGeometry x="380" y="-1530" width="160" height="30" as="geometry" />
        </mxCell>
        <mxCell id="Zug3iQlychnfAxLrtoQu-10" value="5" style="rounded=0;whiteSpace=wrap;html=1;" vertex="1" parent="1">
          <mxGeometry x="700" y="-1530" width="190" height="30" as="geometry" />
        </mxCell>
        <mxCell id="_NXNHaJckFHd4z-jmi__-1" value="1а(ПродКл)" style="rounded=0;whiteSpace=wrap;html=1;" vertex="1" parent="1">
          <mxGeometry x="40" y="-1500" width="180" height="60" as="geometry" />
        </mxCell>
        <mxCell id="_NXNHaJckFHd4z-jmi__-2" value="Отгрузка товаров" style="rounded=0;whiteSpace=wrap;html=1;" vertex="1" parent="1">
          <mxGeometry x="220" y="-1500" width="160" height="60" as="geometry" />
        </mxCell>
        <mxCell id="_NXNHaJckFHd4z-jmi__-3" value="Коды товара соответствуют кодировке в Системе" style="rounded=0;whiteSpace=wrap;html=1;" vertex="1" parent="1">
          <mxGeometry x="540" y="-1500" width="160" height="60" as="geometry" />
        </mxCell>
        <mxCell id="_NXNHaJckFHd4z-jmi__-4" value="Разработка механизва отгрузки товара" style="rounded=0;whiteSpace=wrap;html=1;" vertex="1" parent="1">
          <mxGeometry x="380" y="-1500" width="160" height="60" as="geometry" />
        </mxCell>
        <mxCell id="_NXNHaJckFHd4z-jmi__-5" value="Товар,клиент" style="rounded=0;whiteSpace=wrap;html=1;" vertex="1" parent="1">
          <mxGeometry x="700" y="-1500" width="190" height="60" as="geometry" />
        </mxCell>
        <mxCell id="_NXNHaJckFHd4z-jmi__-6" value="" style="rounded=0;whiteSpace=wrap;html=1;" vertex="1" parent="1">
          <mxGeometry x="40" y="-1440" width="180" height="60" as="geometry" />
        </mxCell>
        <mxCell id="_NXNHaJckFHd4z-jmi__-7" value="" style="rounded=0;whiteSpace=wrap;html=1;" vertex="1" parent="1">
          <mxGeometry x="220" y="-1440" width="160" height="60" as="geometry" />
        </mxCell>
        <mxCell id="_NXNHaJckFHd4z-jmi__-8" value="Единици измерения номенклатуры соответствуют единицам измерения в Системе" style="rounded=0;whiteSpace=wrap;html=1;" vertex="1" parent="1">
          <mxGeometry x="540" y="-1440" width="160" height="60" as="geometry" />
        </mxCell>
        <mxCell id="_NXNHaJckFHd4z-jmi__-9" value="" style="rounded=0;whiteSpace=wrap;html=1;" vertex="1" parent="1">
          <mxGeometry x="380" y="-1440" width="160" height="60" as="geometry" />
        </mxCell>
        <mxCell id="_NXNHaJckFHd4z-jmi__-10" value="" style="rounded=0;whiteSpace=wrap;html=1;" vertex="1" parent="1">
          <mxGeometry x="700" y="-1440" width="190" height="60" as="geometry" />
        </mxCell>
        <mxCell id="_NXNHaJckFHd4z-jmi__-11" value="" style="rounded=0;whiteSpace=wrap;html=1;" vertex="1" parent="1">
          <mxGeometry x="40" y="-1380" width="180" height="60" as="geometry" />
        </mxCell>
        <mxCell id="_NXNHaJckFHd4z-jmi__-12" value="" style="rounded=0;whiteSpace=wrap;html=1;" vertex="1" parent="1">
          <mxGeometry x="220" y="-1380" width="160" height="60" as="geometry" />
        </mxCell>
        <mxCell id="_NXNHaJckFHd4z-jmi__-13" value="Еоды номенклатуры статистики соответсвуют кодам коменклатуры Системы" style="rounded=0;whiteSpace=wrap;html=1;" vertex="1" parent="1">
          <mxGeometry x="540" y="-1380" width="160" height="60" as="geometry" />
        </mxCell>
        <mxCell id="_NXNHaJckFHd4z-jmi__-14" value="" style="rounded=0;whiteSpace=wrap;html=1;" vertex="1" parent="1">
          <mxGeometry x="380" y="-1380" width="160" height="60" as="geometry" />
        </mxCell>
        <mxCell id="_NXNHaJckFHd4z-jmi__-15" value="" style="rounded=0;whiteSpace=wrap;html=1;" vertex="1" parent="1">
          <mxGeometry x="700" y="-1380" width="190" height="60" as="geometry" />
        </mxCell>
        <mxCell id="_NXNHaJckFHd4z-jmi__-16" value="1б(ПродКл)" style="rounded=0;whiteSpace=wrap;html=1;" vertex="1" parent="1">
          <mxGeometry x="40" y="-1320" width="180" height="60" as="geometry" />
        </mxCell>
        <mxCell id="_NXNHaJckFHd4z-jmi__-17" value="Выставление счета" style="rounded=0;whiteSpace=wrap;html=1;" vertex="1" parent="1">
          <mxGeometry x="220" y="-1320" width="160" height="60" as="geometry" />
        </mxCell>
        <mxCell id="_NXNHaJckFHd4z-jmi__-18" value="Разработка механизма выставлен счета клиенту" style="rounded=0;whiteSpace=wrap;html=1;" vertex="1" parent="1">
          <mxGeometry x="380" y="-1320" width="160" height="60" as="geometry" />
        </mxCell>
        <mxCell id="_NXNHaJckFHd4z-jmi__-19" value="" style="rounded=0;whiteSpace=wrap;html=1;" vertex="1" parent="1">
          <mxGeometry x="40" y="-1260" width="180" height="60" as="geometry" />
        </mxCell>
        <mxCell id="_NXNHaJckFHd4z-jmi__-20" value="" style="rounded=0;whiteSpace=wrap;html=1;" vertex="1" parent="1">
          <mxGeometry x="220" y="-1260" width="160" height="60" as="geometry" />
        </mxCell>
        <mxCell id="_NXNHaJckFHd4z-jmi__-21" value="" style="rounded=0;whiteSpace=wrap;html=1;" vertex="1" parent="1">
          <mxGeometry x="380" y="-1260" width="160" height="60" as="geometry" />
        </mxCell>
        <mxCell id="_NXNHaJckFHd4z-jmi__-22" value="Коды товара соответствуют кодировке в Системе" style="rounded=0;whiteSpace=wrap;html=1;direction=west;" vertex="1" parent="1">
          <mxGeometry x="540" y="-1320" width="160" height="60" as="geometry" />
        </mxCell>
        <mxCell id="_NXNHaJckFHd4z-jmi__-23" value="Товар, клиент&amp;nbsp;" style="rounded=0;whiteSpace=wrap;html=1;direction=west;" vertex="1" parent="1">
          <mxGeometry x="700" y="-1320" width="190" height="60" as="geometry" />
        </mxCell>
        <mxCell id="_NXNHaJckFHd4z-jmi__-25" value="Единици измерения номенклатуры соответствуют единицам измерения в Системе" style="rounded=0;whiteSpace=wrap;html=1;direction=west;" vertex="1" parent="1">
          <mxGeometry x="540" y="-1260" width="160" height="60" as="geometry" />
        </mxCell>
        <mxCell id="_NXNHaJckFHd4z-jmi__-26" value="" style="rounded=0;whiteSpace=wrap;html=1;direction=west;" vertex="1" parent="1">
          <mxGeometry x="700" y="-1260" width="190" height="60" as="geometry" />
        </mxCell>
        <mxCell id="_NXNHaJckFHd4z-jmi__-28" value="" style="rounded=0;whiteSpace=wrap;html=1;" vertex="1" parent="1">
          <mxGeometry x="40" y="-1200" width="180" height="60" as="geometry" />
        </mxCell>
        <mxCell id="_NXNHaJckFHd4z-jmi__-29" value="" style="rounded=0;whiteSpace=wrap;html=1;" vertex="1" parent="1">
          <mxGeometry x="220" y="-1200" width="160" height="60" as="geometry" />
        </mxCell>
        <mxCell id="_NXNHaJckFHd4z-jmi__-30" value="" style="rounded=0;whiteSpace=wrap;html=1;" vertex="1" parent="1">
          <mxGeometry x="380" y="-1200" width="160" height="60" as="geometry" />
        </mxCell>
        <mxCell id="_NXNHaJckFHd4z-jmi__-31" value="2(ПродКл)" style="rounded=0;whiteSpace=wrap;html=1;" vertex="1" parent="1">
          <mxGeometry x="40" y="-1140" width="180" height="60" as="geometry" />
        </mxCell>
        <mxCell id="_NXNHaJckFHd4z-jmi__-32" value="Отметка об оплате" style="rounded=0;whiteSpace=wrap;html=1;" vertex="1" parent="1">
          <mxGeometry x="220" y="-1140" width="160" height="60" as="geometry" />
        </mxCell>
        <mxCell id="_NXNHaJckFHd4z-jmi__-33" value="Разработка узла хранения данных статисти оплаты" style="rounded=0;whiteSpace=wrap;html=1;" vertex="1" parent="1">
          <mxGeometry x="380" y="-1140" width="160" height="60" as="geometry" />
        </mxCell>
        <mxCell id="_NXNHaJckFHd4z-jmi__-34" value="Еоды номенклатуры статистики соответсвуют кодам коменклатуры Системы" style="rounded=0;whiteSpace=wrap;html=1;direction=west;" vertex="1" parent="1">
          <mxGeometry x="540" y="-1200" width="160" height="60" as="geometry" />
        </mxCell>
        <mxCell id="_NXNHaJckFHd4z-jmi__-35" value="" style="rounded=0;whiteSpace=wrap;html=1;direction=west;" vertex="1" parent="1">
          <mxGeometry x="700" y="-1200" width="190" height="60" as="geometry" />
        </mxCell>
        <mxCell id="_NXNHaJckFHd4z-jmi__-36" value="В системе регистрируется&amp;nbsp; &amp;nbsp;чек лист, на основе которого и формируются другие" style="rounded=0;whiteSpace=wrap;html=1;direction=west;" vertex="1" parent="1">
          <mxGeometry x="540" y="-1140" width="160" height="140" as="geometry" />
        </mxCell>
        <mxCell id="_NXNHaJckFHd4z-jmi__-37" value="Продажи, клиенты" style="rounded=0;whiteSpace=wrap;html=1;direction=west;" vertex="1" parent="1">
          <mxGeometry x="700" y="-1140" width="190" height="140" as="geometry" />
        </mxCell>
        <mxCell id="_NXNHaJckFHd4z-jmi__-38" value="" style="rounded=0;whiteSpace=wrap;html=1;" vertex="1" parent="1">
          <mxGeometry x="40" y="-1090" width="180" height="90" as="geometry" />
        </mxCell>
        <mxCell id="_NXNHaJckFHd4z-jmi__-39" value="" style="rounded=0;whiteSpace=wrap;html=1;" vertex="1" parent="1">
          <mxGeometry x="220" y="-1090" width="160" height="90" as="geometry" />
        </mxCell>
        <mxCell id="_NXNHaJckFHd4z-jmi__-40" value="" style="rounded=0;whiteSpace=wrap;html=1;" vertex="1" parent="1">
          <mxGeometry x="380" y="-1090" width="160" height="90" as="geometry" />
        </mxCell>
        <mxCell id="_NXNHaJckFHd4z-jmi__-41" value="3(ПродКл)" style="rounded=0;whiteSpace=wrap;html=1;" vertex="1" parent="1">
          <mxGeometry x="40" y="-1000" width="180" height="60" as="geometry" />
        </mxCell>
        <mxCell id="_NXNHaJckFHd4z-jmi__-42" value="Проверка платежа" style="rounded=0;whiteSpace=wrap;html=1;" vertex="1" parent="1">
          <mxGeometry x="220" y="-1000" width="160" height="60" as="geometry" />
        </mxCell>
        <mxCell id="_NXNHaJckFHd4z-jmi__-43" value="" style="rounded=0;whiteSpace=wrap;html=1;" vertex="1" parent="1">
          <mxGeometry x="380" y="-1000" width="170" height="60" as="geometry" />
        </mxCell>
        <mxCell id="_NXNHaJckFHd4z-jmi__-46" value="" style="rounded=0;whiteSpace=wrap;html=1;direction=west;" vertex="1" parent="1">
          <mxGeometry x="540" y="-1000" width="160" height="60" as="geometry" />
        </mxCell>
        <mxCell id="_NXNHaJckFHd4z-jmi__-47" value="" style="rounded=0;whiteSpace=wrap;html=1;direction=west;" vertex="1" parent="1">
          <mxGeometry x="700" y="-1000" width="190" height="60" as="geometry" />
        </mxCell>
        <mxCell id="_NXNHaJckFHd4z-jmi__-48" value="" style="rounded=0;whiteSpace=wrap;html=1;" vertex="1" parent="1">
          <mxGeometry x="40" y="-940" width="180" height="60" as="geometry" />
        </mxCell>
        <mxCell id="_NXNHaJckFHd4z-jmi__-49" value="" style="rounded=0;whiteSpace=wrap;html=1;" vertex="1" parent="1">
          <mxGeometry x="220" y="-940" width="160" height="60" as="geometry" />
        </mxCell>
        <mxCell id="_NXNHaJckFHd4z-jmi__-50" value="" style="rounded=0;whiteSpace=wrap;html=1;" vertex="1" parent="1">
          <mxGeometry x="380" y="-940" width="170" height="60" as="geometry" />
        </mxCell>
        <mxCell id="_NXNHaJckFHd4z-jmi__-51" value="" style="rounded=0;whiteSpace=wrap;html=1;direction=west;" vertex="1" parent="1">
          <mxGeometry x="540" y="-940" width="160" height="60" as="geometry" />
        </mxCell>
        <mxCell id="_NXNHaJckFHd4z-jmi__-52" value="" style="rounded=0;whiteSpace=wrap;html=1;direction=west;" vertex="1" parent="1">
          <mxGeometry x="700" y="-940" width="190" height="60" as="geometry" />
        </mxCell>
        <mxCell id="_NXNHaJckFHd4z-jmi__-53" value="" style="rounded=0;whiteSpace=wrap;html=1;" vertex="1" parent="1">
          <mxGeometry x="40" y="-890" width="180" height="60" as="geometry" />
        </mxCell>
        <mxCell id="_NXNHaJckFHd4z-jmi__-54" value="" style="rounded=0;whiteSpace=wrap;html=1;" vertex="1" parent="1">
          <mxGeometry x="220" y="-890" width="160" height="60" as="geometry" />
        </mxCell>
        <mxCell id="_NXNHaJckFHd4z-jmi__-55" value="" style="rounded=0;whiteSpace=wrap;html=1;" vertex="1" parent="1">
          <mxGeometry x="380" y="-890" width="170" height="60" as="geometry" />
        </mxCell>
        <mxCell id="_NXNHaJckFHd4z-jmi__-56" value="" style="rounded=0;whiteSpace=wrap;html=1;" vertex="1" parent="1">
          <mxGeometry x="40" y="-830" width="180" height="60" as="geometry" />
        </mxCell>
        <mxCell id="_NXNHaJckFHd4z-jmi__-57" value="" style="rounded=0;whiteSpace=wrap;html=1;" vertex="1" parent="1">
          <mxGeometry x="220" y="-830" width="160" height="60" as="geometry" />
        </mxCell>
        <mxCell id="_NXNHaJckFHd4z-jmi__-58" value="" style="rounded=0;whiteSpace=wrap;html=1;" vertex="1" parent="1">
          <mxGeometry x="380" y="-830" width="170" height="60" as="geometry" />
        </mxCell>
        <mxCell id="_NXNHaJckFHd4z-jmi__-59" value="" style="rounded=0;whiteSpace=wrap;html=1;direction=west;" vertex="1" parent="1">
          <mxGeometry x="540" y="-890" width="160" height="60" as="geometry" />
        </mxCell>
        <mxCell id="_NXNHaJckFHd4z-jmi__-60" value="" style="rounded=0;whiteSpace=wrap;html=1;direction=west;" vertex="1" parent="1">
          <mxGeometry x="700" y="-890" width="190" height="60" as="geometry" />
        </mxCell>
        <mxCell id="_NXNHaJckFHd4z-jmi__-61" value="" style="rounded=0;whiteSpace=wrap;html=1;direction=west;" vertex="1" parent="1">
          <mxGeometry x="540" y="-830" width="160" height="60" as="geometry" />
        </mxCell>
        <mxCell id="_NXNHaJckFHd4z-jmi__-62" value="" style="rounded=0;whiteSpace=wrap;html=1;direction=west;" vertex="1" parent="1">
          <mxGeometry x="700" y="-830" width="190" height="60" as="geometry" />
        </mxCell>
        <mxCell id="_NXNHaJckFHd4z-jmi__-63" value="&lt;font style=&quot;font-size: 18px;&quot;&gt;Взаиморасчёты с клиентами&lt;/font&gt;" style="text;html=1;align=center;verticalAlign=middle;resizable=0;points=[];autosize=1;strokeColor=none;fillColor=none;" vertex="1" parent="1">
          <mxGeometry x="10" y="-1647" width="260" height="40" as="geometry" />
        </mxCell>
      </root>
    </mxGraphModel>
  </diagram>
</mxfile>
